<?xml version="1.0" encoding="UTF-8" standalone="no"?>
<!-- Created with Inkscape (http://www.inkscape.org/) -->

<svg
   xmlns:dc="http://purl.org/dc/elements/1.1/"
   xmlns:cc="http://creativecommons.org/ns#"
   xmlns:rdf="http://www.w3.org/1999/02/22-rdf-syntax-ns#"
   xmlns:svg="http://www.w3.org/2000/svg"
   xmlns="http://www.w3.org/2000/svg"
   xmlns:sodipodi="http://sodipodi.sourceforge.net/DTD/sodipodi-0.dtd"
   xmlns:inkscape="http://www.inkscape.org/namespaces/inkscape"
   width="13.060598mm"
   height="16.580912mm"
   viewBox="0 0 13.060598 16.580912"
   version="1.1"
   id="svg8"
   inkscape:version="0.92.5 (2060ec1f9f, 2020-04-08)"
   sodipodi:docname="S.svg">
  <defs
     id="defs2" />
  <sodipodi:namedview
     id="base"
     pagecolor="#ffffff"
     bordercolor="#666666"
     borderopacity="1.0"
     inkscape:pageopacity="0.0"
     inkscape:pageshadow="2"
     inkscape:zoom="2.8"
     inkscape:cx="144.69214"
     inkscape:cy="-1.933956"
     inkscape:document-units="mm"
     inkscape:current-layer="layer1"
     showgrid="false"
     inkscape:window-width="1920"
     inkscape:window-height="1016"
     inkscape:window-x="0"
     inkscape:window-y="27"
     inkscape:window-maximized="1" />
  <metadata
     id="metadata5">
    <rdf:RDF>
      <cc:Work
         rdf:about="">
        <dc:format>image/svg+xml</dc:format>
        <dc:type
           rdf:resource="http://purl.org/dc/dcmitype/StillImage" />
        <dc:title></dc:title>
      </cc:Work>
    </rdf:RDF>
  </metadata>
  <g
     inkscape:label="Layer 1"
     inkscape:groupmode="layer"
     id="layer1"
     transform="translate(-72.088749,-122.40002)">
    <path
       d="m 72.270903,133.8653 c 0.94897,0 2.17664,-0.11289 3.02683,0.34572 0.92075,0.49741 1.83092,1.87678 3.67594,1.70391 1.06539,-0.0988 2.58233,-1.06891 2.0567,-2.3248 -0.38453,-0.91722 -1.89442,-1.29469 -2.76225,-1.53105 -2.19781,-0.59267 -5.17525,-1.12889 -5.59153,-3.83822 -0.64558,-4.191 2.28953,-5.64445 5.94431,-5.64445 3.58422,0 5.77849,1.04423 5.99721,4.93889 -0.70202,0 -2.07786,0.0635 -2.69169,-0.20108 -1.01247,-0.43745 -1.42169,-1.80975 -3.30552,-1.85914 -1.10773,-0.0247 -2.58234,0.70203 -2.0567,2.02494 0.51153,1.29117 2.63172,1.61925 3.82058,1.93322 3.12914,0.81845 4.77308,1.62278 4.572,5.15761 -0.21872,3.8488 -3.64066,4.24744 -6.68866,4.23333 -3.50308,-0.0176 -5.87375,-1.10066 -5.99722,-4.93888 z"
       id="Selection"
       inkscape:connector-curvature="0"
       style="fill:none;stroke:#000000;stroke-width:0.35277757" />
  </g>
</svg>
